<?xml version="1.0" encoding="UTF-8"?>
<svg width="24px" height="24px" viewBox="0 0 24 24" version="1.1" xmlns="http://www.w3.org/2000/svg" xmlns:xlink="http://www.w3.org/1999/xlink">
    <!-- Generator: sketchtool 62 (101010) - https://sketch.com -->
    <title>209ACF18-78D4-41C6-931D-BBF5B153C591</title>
    <desc>Created with sketchtool.</desc>
    <g id="Mobile" stroke="none" stroke-width="1" fill="none" fill-rule="evenodd">
        <g id="Mobile---Home" transform="translate(-300.000000, -2389.000000)" fill="#262626" fill-rule="nonzero">
            <g id="Footer" transform="translate(12.000000, 2307.000000)">
                <g id="facebook" transform="translate(288.000000, 82.000000)">
                    <path d="M23.99993,1.32469 L23.99993,22.67559 C23.99993,23.4071203 23.4068903,24.0002 22.67536,24.0002 L16.5595,24.0002 L16.5595,14.7061 L19.67921,14.7061 L20.14626,11.084 L16.5595,11.084 L16.5595,8.77145 C16.5595,7.72275 16.8507,7.0081 18.35459,7.0081 L20.27259,7.00722 L20.27259,3.76765 C19.3442392,3.66927884 18.4112122,3.62163802 17.47767,3.62494 C14.7123,3.62494 12.81907,5.31294 12.81907,8.41281 L12.81907,11.084 L9.69145,11.084 L9.69145,14.7061 L12.8191,14.7061 L12.8191,24.0002 L1.32455,24.0002 C0.973232535,24.0002 0.636296359,23.8606786 0.387876458,23.6122606 C0.139456558,23.3638426 -7.00151251e-05,23.0269075 -7.00151251e-05,22.67559 L-7.00151251e-05,1.32469 C-7.00151251e-05,0.97336267 0.139417682,0.636409562 0.387843622,0.387983622 C0.636269562,0.139557682 0.97322267,6.99848749e-05 1.32455,6.99848749e-05 L22.67536,6.99848749e-05 C23.0266665,6.99848749e-05 23.3635836,0.139629373 23.6119901,0.388045248 C23.8603966,0.636461123 23.99993,0.973383531 23.99993,1.32469 L23.99993,1.32469 Z"></path>
                </g>
            </g>
        </g>
    </g>
</svg>