<?xml version="1.0" encoding="UTF-8"?>
<svg width="27px" height="18px" viewBox="0 0 27 18" version="1.1" xmlns="http://www.w3.org/2000/svg" xmlns:xlink="http://www.w3.org/1999/xlink">
    <!-- Generator: sketchtool 63.1 (101010) - https://sketch.com -->
    <title>33A3DF29-6874-41D3-A532-BF9941D43877</title>
    <desc>Created with sketchtool.</desc>
    <g id="Desktop" stroke="none" stroke-width="1" fill="none" fill-rule="evenodd">
        <g id="Desktop---Home" transform="translate(-198.000000, -427.000000)" fill="#FFFFFF" fill-rule="nonzero">
            <g id="Hero">
                <g id="Main-Panel" transform="translate(170.000000, 141.000000)">
                    <g id="Link" transform="translate(28.000000, 284.000000)">
                        <path d="M27,2.30259012 C27,2.40379671 26.9681806,2.50215974 26.9097677,2.58254729 C26.8660275,2.65532207 26.7919212,2.70175683 26.7102945,2.70753645 C26.1776074,2.74188005 25.6688994,2.9527454 25.2569938,3.30994632 C24.7444593,3.86896323 24.3474691,4.53365883 24.0910354,5.26215426 L17.9643921,19.7950319 C17.9240679,19.9300107 17.8124076,19.9975001 17.6271885,19.9975001 C17.4879165,20.0006336 17.3583131,19.9228154 17.2899849,19.7950319 L13.8538338,12.2311343 L9.90238702,19.7950319 C9.83406034,19.922817 9.70445593,20.0006358 9.56518345,19.9975001 C9.41965359,20.0155923 9.27931868,19.9341963 9.21610769,19.7950319 L3.19632334,5.26215426 C2.94169582,4.54506792 2.5347719,3.89870681 2.00662058,3.37242116 C1.49964029,2.97838838 0.895047133,2.74744333 0.265986935,2.70752658 C0.1931291,2.70352571 0.126292154,2.66371865 0.0855129697,2.60003906 C0.0294142643,2.53220037 -0.00101402221,2.44500802 0,2.3550753 C0,2.11761366 0.0641411762,2 0.192371937,2 C0.729045586,2 1.29025757,2.02513366 1.87600788,2.07514775 C2.41981484,2.12763622 2.93195328,2.15346587 3.41242321,2.15263669 C3.9016019,2.15263669 4.47864345,2.12680704 5.14354786,2.07514775 C5.83932993,2.02513366 6.45595166,2 6.99341303,2 C7.1216438,2 7.18575918,2.11759392 7.18575918,2.3550753 C7.18575918,2.59000992 7.14538815,2.70747723 7.06702803,2.70747723 C6.61415066,2.72131598 6.17435311,2.87045452 5.79896516,3.13748654 C5.50217324,3.35725109 5.32860909,3.7179627 5.33590338,4.0998498 C5.35060346,4.36342318 5.41604345,4.62110158 5.52824952,4.85723754 L10.5031792,16.6829873 L13.326666,11.0688101 L10.6955253,5.26215426 C10.4085881,4.5339944 10.0151771,3.85757908 9.52956692,3.25745127 C9.13733961,2.92193705 8.65250488,2.72902348 8.14750864,2.70753645 C8.08035222,2.70125683 8.02021131,2.66122334 7.98603391,2.60004893 C7.93398839,2.53027513 7.90631831,2.44378525 7.90766441,2.35508518 C7.90766441,2.11762353 7.96228955,2 8.0762662,2 C8.56952272,1.99790891 9.06255003,2.02295044 9.55331127,2.07515762 C10.0122133,2.12875149 10.4736556,2.15462354 10.9353695,2.15264656 C11.415058,2.15264656 11.923239,2.12681691 12.4599127,2.07515762 C13.0131974,2.02514353 13.5577858,2 14.093678,2 C14.2219088,2 14.2860241,2.11760379 14.2860241,2.35508518 C14.2860241,2.59001979 14.248035,2.7074871 14.167293,2.7074871 C13.0939519,2.78497604 12.5572783,3.1057605 12.557272,3.66984048 C12.6043991,4.08405265 12.7312557,4.48380305 12.9300922,4.8446715 L14.6707258,8.56414054 L16.4018505,5.16213924 C16.6109255,4.79256024 16.734565,4.37643478 16.7627984,3.94731998 C16.7627984,3.1724306 16.2261216,2.75915626 15.1527681,2.70749697 C15.0554087,2.70749697 15.00792,2.59002966 15.00792,2.35509505 C15.0081381,2.26936935 15.0329827,2.18571748 15.0791906,2.11512612 C15.1290518,2.03763718 15.1765499,2 15.2240386,2 C15.6087434,2 16.0813048,2.0251534 16.6417228,2.07516749 C17.1783902,2.12765267 17.6200802,2.15265643 17.9644108,2.15265643 C18.2113727,2.15265643 18.5770752,2.13015996 19.0567542,2.08766443 C19.6646734,2.03017455 20.1752239,2 20.5836699,2 C20.6786567,2 20.7261454,2.10016138 20.7261454,2.30262961 C20.7261454,2.57259383 20.6382826,2.70757594 20.4625569,2.70757594 C19.9226364,2.74384398 19.4018665,2.93202347 18.9546216,3.25246631 C18.368739,3.82613438 17.8867664,4.50709558 17.5321923,5.26216413 L15.2240105,9.75401527 L18.349075,16.4555745 L22.9630567,5.16216885 C23.1115947,4.80277085 23.1930241,4.41663648 23.2029009,4.02483853 C23.2029009,3.19746726 22.6662242,2.75836657 21.5928706,2.70753645 C21.4955112,2.70753645 21.4480225,2.59006915 21.4480225,2.35513453 C21.4480225,2.11767289 21.5192931,2.00018584 21.664113,2.00018584 C22.0559324,2.00018584 22.5205759,2.02519288 23.0580435,2.07520698 C23.5543492,2.12769216 23.9722949,2.15269591 24.307154,2.15269591 C24.7166115,2.14969827 25.1256294,2.12383226 25.5324827,2.07520698 C26.0145437,2.02520934 26.4467341,2.00018584 26.8314263,2.00018584 C26.9430117,2 27,2.10012189 27,2.30259012 Z" id="wikipedia"></path>
                    </g>
                </g>
            </g>
        </g>
    </g>
</svg>